<svg xmlns="http://www.w3.org/2000/svg" viewBox="0 0 124.72 24.39"><defs><style>.cls-1{fill:#3b3e3d;}.cls-2{fill:#789921;}</style></defs><title>アセット 3</title><g id="レイヤー_2" data-name="レイヤー 2"><g id="レイヤー_3" data-name="レイヤー 3"><path class="cls-1" d="M17.42,12.44a5,5,0,0,1-5-4.89,5,5,0,0,1,10,0A5,5,0,0,1,17.42,12.44Zm0-7.89a3.06,3.06,0,0,0-3.1,3,3.1,3.1,0,0,0,6.2,0A3.06,3.06,0,0,0,17.42,4.55ZM1.9,6.22A4.48,4.48,0,0,1,6.51,1.9a4.68,4.68,0,0,1,3.66,1.7l1.47-1.2A6.55,6.55,0,0,0,6.51,0,6.38,6.38,0,0,0,0,6.22m0,0a6.38,6.38,0,0,0,6.51,6.22A6.55,6.55,0,0,0,11.64,10l-1.47-1.2a4.68,4.68,0,0,1-3.66,1.7A4.48,4.48,0,0,1,1.9,6.22m39.25,6.22a5,5,0,0,1-5-4.89,5,5,0,0,1,10,0A5,5,0,0,1,41.15,12.44Zm0-7.89a3.06,3.06,0,0,0-3.1,3,3.1,3.1,0,0,0,6.2,0A3.06,3.06,0,0,0,41.15,4.55ZM25.63,6.22A4.48,4.48,0,0,1,30.24,1.9,4.68,4.68,0,0,1,33.9,3.6l1.47-1.2A6.55,6.55,0,0,0,30.24,0a6.38,6.38,0,0,0-6.51,6.22m0,0a6.38,6.38,0,0,0,6.51,6.22A6.55,6.55,0,0,0,35.37,10L33.9,8.84a4.68,4.68,0,0,1-3.66,1.7,4.48,4.48,0,0,1-4.61-4.32"/><path class="cls-1" d="M100.12,3.93a3.5,3.5,0,0,0-4.3-.72V6.35a1.68,1.68,0,0,1,3.36,0,3.57,3.57,0,0,1,.72-2.16Z"/><path class="cls-1" d="M56.89,1.9a4.7,4.7,0,0,1,3.67,1.7L62,2.4A6.57,6.57,0,0,0,56.89,0a6.37,6.37,0,0,0-6.5,6.22,6.37,6.37,0,0,0,6.5,6.22,6.64,6.64,0,0,0,4.84-2.06l.26-.27V5.61h-4.9v1.9h3V9.33a4.73,4.73,0,0,1-3.2,1.21,4.48,4.48,0,0,1-4.61-4.32A4.48,4.48,0,0,1,56.89,1.9Z"/><path class="cls-1" d="M93.92,6.35v5.5h1.9V3.21A3.54,3.54,0,0,0,93.92,6.35Z"/><path class="cls-1" d="M89.05,2.61h-1.9v9.24h1.9v-5a2.25,2.25,0,0,1,2.49-2.13V2.82a4.85,4.85,0,0,0-2.49.65Z"/><path class="cls-1" d="M95.82,3.21V2.8h-1.9V6.35A3.54,3.54,0,0,1,95.82,3.21Z"/><path class="cls-1" d="M82.49,7.61a2.5,2.5,0,0,1-5,0v-5H75.6v5a4.39,4.39,0,0,0,6.89,3.61v.63h1.89V2.61H82.49Z"/><path class="cls-1" d="M68.91,2.4a5,5,0,0,0-5,4.89,5,5,0,0,0,10,0A5,5,0,0,0,68.91,2.4Zm0,7.89a3.05,3.05,0,0,1-3.1-3,3.1,3.1,0,0,1,6.2,0A3.05,3.05,0,0,1,68.91,10.29Z"/><path class="cls-1" d="M102.75,2.77a3.6,3.6,0,0,0-2.63,1.16,3.54,3.54,0,0,1,.95,2.42,1.68,1.68,0,0,1,3.36,0v5.5h1.9V6.35A3.58,3.58,0,0,0,102.75,2.77Z"/><path class="cls-1" d="M99.9,4.19a3.57,3.57,0,0,0-.72,2.16v5.5h1.89V6.35a3.54,3.54,0,0,0-.95-2.42Z"/><path class="cls-1" d="M123.88,9.55a1.81,1.81,0,0,1-1.67.13,1,1,0,0,1-.4-.94V5.18h-1.9V8.74a2.85,2.85,0,0,0,1.3,2.55,3,3,0,0,0,1.6.43,4.37,4.37,0,0,0,1.91-.47Z"/><rect class="cls-1" x="121.81" y="3.28" width="2.5" height="1.9"/><rect class="cls-1" x="119.91" y="3.28" width="1.9" height="1.9"/><polygon class="cls-1" points="121.81 1.04 119.91 1.51 119.91 3.28 121.81 3.28 121.81 1.04"/><rect class="cls-1" x="118.58" y="3.28" width="1.33" height="1.9"/><path class="cls-1" d="M115.1,8.87,115,9A3,3,0,0,1,109.64,7V6.91h-1.77V7a4.8,4.8,0,0,0,8.51,3.06l.09-.1Z"/><path class="cls-1" d="M112.49,2.42A4.62,4.62,0,0,0,107.87,7v.13h1.25v.76h8V7A4.63,4.63,0,0,0,112.49,2.42Zm0,1.77a2.86,2.86,0,0,1,2.72,2h-5.43A2.85,2.85,0,0,1,112.49,4.19Z"/><path class="cls-2" d="M27.16,19.42h3.05v.44H27.66v1.73h2.39V22H27.66v2.28h-.5Z"/><path class="cls-2" d="M32.67,21.74c0-.54,0-.81,0-.95h.46c0,.1,0,.35,0,.75a1.29,1.29,0,0,1,1.21-.84v.48a1.21,1.21,0,0,0-1.21,1.35v1.78h-.47Z"/><path class="cls-2" d="M36.93,22.62c0,.82.42,1.36,1.06,1.36a.91.91,0,0,0,.94-.61h.47a1.37,1.37,0,0,1-1.43,1c-1.08,0-1.52-.91-1.52-1.81S37,20.7,38,20.7a1.48,1.48,0,0,1,1.47,1.63,2.71,2.71,0,0,1,0,.29ZM39,22.26c0-.65-.35-1.16-1-1.16s-1,.47-1,1.16Z"/><path class="cls-2" d="M42.27,23.32a.87.87,0,0,0,.94.68c.58,0,.81-.26.81-.62s-.17-.55-.9-.73c-1-.23-1.18-.52-1.18-1s.37-1,1.22-1a1.15,1.15,0,0,1,1.27,1H44a.76.76,0,0,0-.83-.61c-.56,0-.72.28-.72.53s.15.45.83.61c1,.25,1.26.59,1.26,1.11S44,24.39,43.2,24.39a1.24,1.24,0,0,1-1.4-1.07Z"/><path class="cls-2" d="M47.57,19.16v2.18a1.22,1.22,0,0,1,1.14-.64c.53,0,1.19.28,1.19,1.36v2.25h-.47V22.15c0-.65-.29-1-.84-1s-1,.42-1,1.23v1.95h-.46V19.16Z"/><path class="cls-2" d="M60.79,21.19l-1.23,1.86c-.59.89-1,1.33-1.85,1.33a1.27,1.27,0,0,1-1.32-1.27c0-.61.31-1.06,1.32-1.59.67-.41,1-.62,1-1.07a.69.69,0,1,0-1.37,0c0,.31.22.59.62,1l2.91,2.87h-.66l-2.64-2.59a1.7,1.7,0,0,1-.69-1.23A1.1,1.1,0,0,1,58,19.35a1.07,1.07,0,0,1,1.11,1.1c0,.5-.3.82-1.16,1.33s-1.09.85-1.09,1.29a.88.88,0,0,0,.84.88c.56,0,.91-.21,1.53-1.18l1-1.58Z"/><path class="cls-2" d="M66.4,24.31V19.42h.7c.73,1.16,2.4,3.76,2.69,4.29h0c0-.67,0-1.42,0-2.21V19.42h.49v4.89H69.6c-.69-1.1-2.4-3.84-2.73-4.38h0c0,.6,0,1.37,0,2.25v2.13Z"/><path class="cls-2" d="M75.49,23.59a4.8,4.8,0,0,0,.05.72h-.45A1.94,1.94,0,0,1,75,23.8a1.14,1.14,0,0,1-1.13.59,1,1,0,0,1-1.17-1.06c0-.78.61-1.14,1.66-1.14H75v-.33c0-.33-.11-.76-.84-.76s-.76.33-.83.61H72.9c0-.43.31-1,1.3-1,.83,0,1.29.35,1.29,1.13Zm-.46-1H74.4c-.75,0-1.19.2-1.19.75A.69.69,0,0,0,74,24c.93,0,1.06-.63,1.06-1.33Z"/><path class="cls-2" d="M77.58,20.79h.64V19.71h.46v1.08h.82v.4h-.82v2.19c0,.37.09.57.42.57a1.38,1.38,0,0,0,.34,0v.37a1.27,1.27,0,0,1-.48.07c-.5,0-.74-.25-.74-.83V21.19h-.64Z"/><path class="cls-2" d="M84.41,23.28v1H84a4.14,4.14,0,0,1,0-.58,1.06,1.06,0,0,1-1.11.66c-.54,0-1.16-.24-1.16-1.28V20.79h.47V23c0,.49.15.95.8.95s1-.4,1-1.35V20.79h.47Z"/><path class="cls-2" d="M86.94,21.74v-.95h.46c0,.1,0,.35,0,.75a1.31,1.31,0,0,1,1.21-.84v.48a1.21,1.21,0,0,0-1.21,1.35v1.78h-.47Z"/><path class="cls-2" d="M93.27,23.59a4.8,4.8,0,0,0,0,.72h-.45a1.94,1.94,0,0,1-.06-.51,1.15,1.15,0,0,1-1.13.59,1.06,1.06,0,0,1-1.18-1.06c0-.78.61-1.14,1.66-1.14h.64v-.33c0-.33-.1-.76-.84-.76s-.76.33-.83.61h-.46c0-.43.31-1,1.3-1,.83,0,1.3.35,1.3,1.13Zm-.46-1h-.64c-.74,0-1.18.2-1.18.75a.69.69,0,0,0,.75.7c.94,0,1.07-.63,1.07-1.33Z"/><path class="cls-2" d="M95.81,24.31V19.16h.47v5.15Z"/></g></g></svg>