<svg xmlns="http://www.w3.org/2000/svg" viewBox="0 0 89.29 68.42"><defs><style>.cls-1{fill:#3b3e3d;}</style></defs><g id="レイヤー_2" data-name="レイヤー 2"><g id="レイヤー_3" data-name="レイヤー 3"><path class="cls-1" d="M89.23,28a1.19,1.19,0,0,0-.8-.74c-1.48-.39-3.05-.73-4.62-1A14.32,14.32,0,0,0,86,20.08a1.15,1.15,0,0,0-1.48-1.22,66.55,66.55,0,0,0-9,3.57,4.79,4.79,0,0,0-5-.31c-.51-.62-1.14-1.34-1.94-2.22C65.76,16.81,62,13,57.92,9.17,51.24,2.89,47.2-.37,35,0A17.85,17.85,0,0,0,19.15,10.79H1.25a1.17,1.17,0,0,0-1.16,1C0,12.32-1.13,24,6.55,26.64c6.07,2.08,17.87,2,21.35,1.95-.26,1-.53,2-.81,3l-.41,1.52c-1.22,4.58-.86,7.58,1.12,9.17a5.48,5.48,0,0,0,3.6,1.1c2.46,0,5.49-1,8.63-2.37a25.38,25.38,0,0,1,4,9l-.13,17.26a1.18,1.18,0,0,0,.5,1,1.14,1.14,0,0,0,.66.2,1.09,1.09,0,0,0,.43-.08c.29-.11,26.88-11,28.27-37.38a9.17,9.17,0,0,0,6,3.15l.51,0c5,0,8.6-4.87,8.76-5.08A1.2,1.2,0,0,0,89.23,28Zm-8-2.21c-1.92-.3-3.73-.53-5.26-.7l.16-.36a75.75,75.75,0,0,1,7.21-3A9.09,9.09,0,0,1,81.2,25.77Zm-7.37-1.64-1,2.22-1.07-2.28A2.39,2.39,0,0,1,73.83,24.13ZM49.22,22.46c-.22-.86-.46-1.77-.69-2.72a1.24,1.24,0,1,0-2.4.59c.24,1,.47,1.87.7,2.74,2,7.77,2.47,10.57-1.78,12.75l-.49.26C40.81,38,32,42.53,29.35,40.37c-1.1-.89-1.2-3.17-.28-6.61l.41-1.52c3.33-12.44,6.2-23.18,9.58-23.18h0a1.24,1.24,0,1,0,0-2.47h0c-4.64,0-7.15,7.29-10.53,19.66-2,.05-15.09.31-21.23-1.8-4.8-1.65-5-8.67-5-11.34H19.93a1.16,1.16,0,0,0,1.1-.79,15.34,15.34,0,0,1,14.06-10C46.38,2,49.77,4.69,56.33,10.86A144.5,144.5,0,0,1,69.39,24.43l.39.83C59.21,42.07,49.29,47.1,46.05,48.37A28.75,28.75,0,0,0,42.15,40c1.19-.57,2.38-1.17,3.54-1.77l.5-.25C52.4,34.82,51.06,29.64,49.22,22.46Zm-3,43,.12-14.72c3-1,13.35-5.68,24.58-23l.56,1.19C71.41,51.4,52,62.62,46.24,65.45ZM80,31.8c-1.9-.13-3.72-1.31-5.44-3.51l.44-1A102.31,102.31,0,0,1,86,29C84.69,30.29,82.47,32,80,31.8Z"/></g></g></svg>