<?xml version="1.0" encoding="UTF-8"?><svg id="_レイヤー_2" xmlns="http://www.w3.org/2000/svg" viewBox="0 0 118.51 118.51"><defs><style>.cls-1{stroke-miterlimit:10;stroke-width:6px;}.cls-1,.cls-2{fill:none;stroke:#ffffff;}.cls-2{stroke-width:3px;}.cls-3{fill:#ffffff;stroke-width:0px;}</style></defs><g id="_レイヤー_1-2"><circle class="cls-1" cx="59.25" cy="59.25" r="56.25"/><path class="cls-3" d="M44.14,51.21c-7.02.39-18.14.39-24.97.39-1.5,0-2.28-1.04-2.28-1.95s.65-1.76,1.95-1.76h.13c2.6.06,5.98.13,9.43.13,5.92,0,12.09-.13,15.21-.32,3.38-.26,4.94-1.63,5.07-4.29.06-1.82.13-4.55.13-7.28,0-3.38-.07-6.76-.13-8.65-.13-3.12-2.02-3.97-4.29-4.03-1.43-.06-3.19-.06-5.07-.06-6.24,0-14.3.2-19.57.46h-.13c-1.3,0-1.95-.78-1.95-1.63s.65-1.76,1.95-1.82c5.01-.19,11.96-.33,18.08-.33,2.8,0,5.4,0,7.48.06,5.2.13,7.41,3.06,7.41,6.76,0,2.67.06,6.83.06,10.99,0,2.15,0,4.23-.06,6.18-.13,4.62-3.45,6.89-8.45,7.15Z"/><path class="cls-3" d="M85.62,10.96l-.2,17.03c.2-.06.39-.13.59-.13,2.08,0,13.26,2.86,17.23,5.85.59.46.85,1.04.85,1.63,0,1.04-.78,2.08-1.82,2.08-.39,0-.85-.13-1.24-.46-3.25-2.41-11.7-5.2-15.28-5.72-.13,0-.26-.06-.39-.13v7.93c0,7.22.06,14.04.13,18.27.06,1.76-1.24,2.34-2.15,2.34-.98,0-1.95-.65-1.95-2.08v-.13c.33-7.48.52-22.37.52-34,0-5.14-.06-9.62-.13-12.55v-.06c0-1.17.91-1.76,1.89-1.76s1.95.58,1.95,1.82v.06Z"/><path class="cls-3" d="M44.48,90.25c4.73,4.67,10.05,7.78,16.34,9.58.78.24,1.08.84,1.08,1.5,0,.9-.6,1.8-1.74,1.8-1.2,0-10.59-3.17-18.97-12.87h-10.41c-2.67,3.28-4.38,4.73-5.27,5.02-1.48.49-.67-2.22,1.8-5.02l-15.14.12c-.9,0-1.38-.72-1.38-1.38,0-.72.48-1.38,1.38-1.38l12.63.06v-17.59l-9.7.06c-.9,0-1.38-.72-1.38-1.38,0-.72.48-1.38,1.38-1.38h9.7v-5.75c0-.84.78-1.26,1.56-1.26s1.56.42,1.56,1.26v5.81h16.1v-5.81c0-.9.78-1.32,1.56-1.32.72,0,1.5.42,1.5,1.32v5.75h9.99c.96,0,1.38.66,1.38,1.38,0,.66-.42,1.38-1.38,1.38l-9.99-.06v17.59l12.93-.06c.96,0,1.38.72,1.38,1.38,0,.72-.42,1.38-1.32,1.38l-15.56-.12ZM16.95,110.3c-.9,0-1.32-.66-1.32-1.38,0-.66.42-1.32,1.32-1.32l17.53.06v-6.34l-9.82.06c-.9,0-1.38-.66-1.38-1.32s.48-1.32,1.38-1.32h9.82l-.06-4.25c0-.96.78-1.44,1.62-1.44.78,0,1.56.48,1.56,1.44l-.06,4.25h9.99c.9,0,1.32.66,1.32,1.32s-.42,1.32-1.32,1.32l-9.99-.06v6.34l17.95-.06c.9,0,1.32.66,1.32,1.38,0,.66-.42,1.32-1.32,1.32H16.95ZM44,70.08l-7.9-.06-8.2.06v4.19h16.1v-4.19ZM44,76.55h-16.1v4.31h16.1v-4.31ZM44,83.13h-16.1v4.55l8.14.06,7.96-.06v-4.55Z"/><path class="cls-3" d="M83.87,67.95c-.74,0-1.53.45-2.33,1.48-6.87,8.75-18.07,17.84-20.22,17.84-1.02,0-1.7-.74-1.7-1.59,0-.57.34-1.14,1.08-1.53,6.93-3.58,14.43-11.08,18.86-16.87,1.14-1.42,2.56-2.22,4.09-2.22s3.01.74,4.43,2.22c5.74,6.14,12.1,11.65,19.15,15.23.62.34.91.85.91,1.36,0,.91-.8,1.82-1.82,1.82-2.16,0-14.03-9.66-19.94-16.25-.85-1.02-1.7-1.48-2.5-1.48ZM62.62,110.17c-.91,0-1.36-.68-1.36-1.36,0-.62.45-1.31,1.36-1.31l19.83.06v-14.37l-15.51.06c-.91,0-1.36-.68-1.36-1.36s.45-1.36,1.36-1.36l15.51.06v-7.44l-8.18.06c-.91,0-1.36-.63-1.36-1.31,0-.63.45-1.31,1.36-1.31h19.71c.91,0,1.36.62,1.36,1.31,0,.62-.45,1.31-1.42,1.31l-8.47-.06v7.44l15.57-.06c.91,0,1.31.68,1.31,1.36s-.4,1.36-1.31,1.36l-15.57-.06v14.37h3.64c1.87-2.78,5.34-3.52,2.9,0l13.29-.06c.91,0,1.31.68,1.31,1.31,0,.68-.4,1.36-1.31,1.36h-42.67ZM74.27,104.54c-1.02-2.39-3.01-4.72-4.32-5.97-.23-.23-.28-.45-.28-.68,0-.62.74-1.25,1.53-1.25,1.53,0,5.85,5.4,5.85,7.1,0,.91-.8,1.65-1.59,1.65-.51,0-.97-.23-1.19-.85Z"/><path class="cls-2" d="M44.14,51.21c-7.02.39-18.14.39-24.97.39-1.5,0-2.28-1.04-2.28-1.95s.65-1.76,1.95-1.76h.13c2.6.06,5.98.13,9.43.13,5.92,0,12.09-.13,15.21-.32,3.38-.26,4.94-1.63,5.07-4.29.06-1.82.13-4.55.13-7.28,0-3.38-.07-6.76-.13-8.65-.13-3.12-2.02-3.97-4.29-4.03-1.43-.06-3.19-.06-5.07-.06-6.24,0-14.3.2-19.57.46h-.13c-1.3,0-1.95-.78-1.95-1.63s.65-1.76,1.95-1.82c5.01-.19,11.96-.33,18.08-.33,2.8,0,5.4,0,7.48.06,5.2.13,7.41,3.06,7.41,6.76,0,2.67.06,6.83.06,10.99,0,2.15,0,4.23-.06,6.18-.13,4.62-3.45,6.89-8.45,7.15Z"/><path class="cls-2" d="M85.62,10.96l-.2,17.03c.2-.06.39-.13.59-.13,2.08,0,13.26,2.86,17.23,5.85.59.46.85,1.04.85,1.63,0,1.04-.78,2.08-1.82,2.08-.39,0-.85-.13-1.24-.46-3.25-2.41-11.7-5.2-15.28-5.72-.13,0-.26-.06-.39-.13v7.93c0,7.22.06,14.04.13,18.27.06,1.76-1.24,2.34-2.15,2.34-.98,0-1.95-.65-1.95-2.08v-.13c.33-7.48.52-22.37.52-34,0-5.14-.06-9.62-.13-12.55v-.06c0-1.17.91-1.76,1.89-1.76s1.95.58,1.95,1.82v.06Z"/><path class="cls-2" d="M44.48,90.25c4.73,4.67,10.05,7.78,16.34,9.58.78.24,1.08.84,1.08,1.5,0,.9-.6,1.8-1.74,1.8-1.2,0-10.59-3.17-18.97-12.87h-10.41c-2.67,3.28-4.38,4.73-5.27,5.02-1.48.49-.67-2.22,1.8-5.02l-15.14.12c-.9,0-1.38-.72-1.38-1.38,0-.72.48-1.38,1.38-1.38l12.63.06v-17.59l-9.7.06c-.9,0-1.38-.72-1.38-1.38,0-.72.48-1.38,1.38-1.38h9.7v-5.75c0-.84.78-1.26,1.56-1.26s1.56.42,1.56,1.26v5.81h16.1v-5.81c0-.9.78-1.32,1.56-1.32.72,0,1.5.42,1.5,1.32v5.75h9.99c.96,0,1.38.66,1.38,1.38,0,.66-.42,1.38-1.38,1.38l-9.99-.06v17.59l12.93-.06c.96,0,1.38.72,1.38,1.38,0,.72-.42,1.38-1.32,1.38l-15.56-.12ZM16.95,110.3c-.9,0-1.32-.66-1.32-1.38,0-.66.42-1.32,1.32-1.32l17.53.06v-6.34l-9.82.06c-.9,0-1.38-.66-1.38-1.32s.48-1.32,1.38-1.32h9.82l-.06-4.25c0-.96.78-1.44,1.62-1.44.78,0,1.56.48,1.56,1.44l-.06,4.25h9.99c.9,0,1.32.66,1.32,1.32s-.42,1.32-1.32,1.32l-9.99-.06v6.34l17.95-.06c.9,0,1.32.66,1.32,1.38,0,.66-.42,1.32-1.32,1.32H16.95ZM44,70.08l-7.9-.06-8.2.06v4.19h16.1v-4.19ZM44,76.55h-16.1v4.31h16.1v-4.31ZM44,83.13h-16.1v4.55l8.14.06,7.96-.06v-4.55Z"/><path class="cls-2" d="M83.87,67.95c-.74,0-1.53.45-2.33,1.48-6.87,8.75-18.07,17.84-20.22,17.84-1.02,0-1.7-.74-1.7-1.59,0-.57.34-1.14,1.08-1.53,6.93-3.58,14.43-11.08,18.86-16.87,1.14-1.42,2.56-2.22,4.09-2.22s3.01.74,4.43,2.22c5.74,6.14,12.1,11.65,19.15,15.23.62.34.91.85.91,1.36,0,.91-.8,1.82-1.82,1.82-2.16,0-14.03-9.66-19.94-16.25-.85-1.02-1.7-1.48-2.5-1.48ZM62.62,110.17c-.91,0-1.36-.68-1.36-1.36,0-.62.45-1.31,1.36-1.31l19.83.06v-14.37l-15.51.06c-.91,0-1.36-.68-1.36-1.36s.45-1.36,1.36-1.36l15.51.06v-7.44l-8.18.06c-.91,0-1.36-.63-1.36-1.31,0-.63.45-1.31,1.36-1.31h19.71c.91,0,1.36.62,1.36,1.31,0,.62-.45,1.31-1.42,1.31l-8.47-.06v7.44l15.57-.06c.91,0,1.31.68,1.31,1.36s-.4,1.36-1.31,1.36l-15.57-.06v14.37h3.64c1.87-2.78,5.34-3.52,2.9,0l13.29-.06c.91,0,1.31.68,1.31,1.31,0,.68-.4,1.36-1.31,1.36h-42.67ZM74.27,104.54c-1.02-2.39-3.01-4.72-4.32-5.97-.23-.23-.28-.45-.28-.68,0-.62.74-1.25,1.53-1.25,1.53,0,5.85,5.4,5.85,7.1,0,.91-.8,1.65-1.59,1.65-.51,0-.97-.23-1.19-.85Z"/><rect class="cls-3" x="27.48" y="106.17" width="64.37" height="5.55"/><rect class="cls-3" x="17.82" y="93.21" width="12.31" height="3.85" transform="translate(-62.33 48.48) rotate(-47.46)"/></g></svg>