<?xml version="1.0" encoding="UTF-8"?><svg xmlns="http://www.w3.org/2000/svg" viewBox="0 0 277.27 15.74"><defs><style>.d{fill:#231815;}</style></defs><g id="a"/><g id="b"><g id="c"><g><path class="d" d="M5.92,6.57c1.62-1.33,3.28-2.11,5.17-2.11,2.72,0,4.48,1.85,4.48,4.57s-1.69,4.68-4.79,5.8c-.11,.05-.22,.07-.31,.07-.18,0-.34-.09-.47-.25-.38-.45-.79-.81-1.42-1.19,1.75-.47,2.67-.97,3.62-1.78,.83-.74,1.22-1.64,1.22-2.72,0-1.69-.95-2.79-2.68-2.79s-3.06,.79-4.83,2.3c.02,2.3,.07,4.48,.11,6.91,0,.14-.09,.22-.23,.22-.2,.02-1.01,.07-1.6,.07-.16,0-.22-.07-.2-.25,.02-1.84,.05-3.73,.09-5.56-.86,1.3-1.76,2.61-2.43,3.57-.09,.11-.16,.18-.25,.18-.05,0-.13-.04-.2-.11-.41-.36-.76-.7-1.1-1.08-.07-.05-.11-.13-.11-.2s.04-.14,.11-.22c1.58-1.93,2.61-3.21,3.96-5.06,0-.45,0-.94,.02-1.28-.52,.16-1.37,.41-2.05,.67-.31,.13-.49,.31-.59,.31-.13,0-.25-.11-.36-.32-.22-.41-.49-.97-.72-1.58,.43-.04,.7-.07,1.22-.18,.47-.11,1.17-.27,2.56-.65,.04-.77,.04-1.57,.04-2.34,0-.45-.04-.97-.18-1.57,1.04,.11,1.64,.18,2.09,.31,.38,.11,.45,.31,.32,.63-.09,.22-.14,.49-.18,.77-.02,.43-.05,.85-.09,1.62,.05-.02,.09-.04,.14-.05,.04-.02,.09-.04,.13-.04,.13,0,.32,.18,.49,.41,.22,.29,.29,.43,.29,.56s-.04,.2-.31,.5c-.25,.32-.52,.67-.95,1.3v.56Z"/><path class="d" d="M29.05,1.62c.31,.16,.41,.27,.41,.43,0,.13-.04,.18-.27,.54-.18,.32-.27,.58-.43,1.28-.5,2.23-.76,4.45-.76,5.82,0,.88,.04,1.48,.11,2.11,.38-.83,.7-1.42,1.22-2.68,.14,.45,.38,.74,.63,1.13,.05,.09,.13,.2,.13,.27,0,.13-.04,.2-.09,.29-.41,.94-.76,1.71-1.03,2.72-.04,.11-.05,.31-.05,.56,0,.22,.04,.36,.04,.5,0,.13-.07,.2-.23,.23-.45,.13-.95,.23-1.48,.29-.13,.02-.2-.07-.23-.2-.5-1.26-.83-3.55-.83-5.37,0-1.62,.2-3.58,.61-5.91,.23-1.33,.32-1.93,.32-2.68,.81,.2,1.39,.38,1.93,.67Zm3.85,8.48c.14-.02,.18,.07,.18,.27,.11,1.24,.97,1.69,2.93,1.69,1.35,0,2.23-.09,3.44-.23,.18-.02,.22,0,.25,.23,.05,.38,.11,1.08,.11,1.55,0,.22,0,.23-.31,.27-1.22,.14-2.09,.2-2.94,.2-2.66,0-3.91-.43-4.68-1.49-.45-.58-.63-1.49-.63-2.34l1.64-.14Zm-1.01-6.73c.02-.22,.07-.27,.25-.31,1.06-.2,3.08-.32,3.91-.32,1.08,0,1.91,.04,2.66,.11,.38,.02,.41,.05,.41,.23,0,.54,0,1.03-.04,1.53-.02,.16-.07,.23-.23,.22-1.08-.07-2.02-.11-2.94-.11-1.21,0-2.38,.11-4.09,.41,.02-1.01,.02-1.46,.05-1.76Z"/><path class="d" d="M53.89,1.62c.31,.16,.41,.27,.41,.43,0,.13-.04,.18-.27,.54-.18,.32-.27,.58-.43,1.28-.5,2.23-.76,4.45-.76,5.82,0,.88,.04,1.48,.11,2.11,.38-.83,.7-1.42,1.22-2.68,.14,.45,.38,.74,.63,1.13,.05,.09,.13,.2,.13,.27,0,.13-.04,.2-.09,.29-.41,.94-.76,1.71-1.03,2.72-.04,.11-.05,.31-.05,.56,0,.22,.04,.36,.04,.5,0,.13-.07,.2-.23,.23-.45,.13-.95,.23-1.48,.29-.13,.02-.2-.07-.23-.2-.5-1.26-.83-3.55-.83-5.37,0-1.62,.2-3.58,.61-5.91,.23-1.33,.32-1.93,.32-2.68,.81,.2,1.39,.38,1.93,.67Zm3.85,8.48c.14-.02,.18,.07,.18,.27,.11,1.24,.97,1.69,2.93,1.69,1.35,0,2.23-.09,3.44-.23,.18-.02,.22,0,.25,.23,.05,.38,.11,1.08,.11,1.55,0,.22,0,.23-.31,.27-1.22,.14-2.09,.2-2.94,.2-2.66,0-3.91-.43-4.68-1.49-.45-.58-.63-1.49-.63-2.34l1.64-.14Zm-1.01-6.73c.02-.22,.07-.27,.25-.31,1.06-.2,3.08-.32,3.91-.32,1.08,0,1.91,.04,2.67,.11,.38,.02,.41,.05,.41,.23,0,.54,0,1.03-.04,1.53-.02,.16-.07,.23-.23,.22-1.08-.07-2.02-.11-2.93-.11-1.21,0-2.38,.11-4.09,.41,.02-1.01,.02-1.46,.05-1.76Z"/><path class="d" d="M76.93,4.59c.2,0,.31,.14,.31,.38,0,.16-.02,.27,.02,.43,.04,.23,.09,.47,.18,.72,.09,.31,.2,.63,.32,.99,.99-.38,1.87-.68,2.48-.86,.88-.29,1.66-.38,2.48-.38,1.84,0,3.06,1.04,3.06,2.68,0,1.91-1.37,3.02-3.71,3.02-.27,0-.47-.02-.63-.04-.29-.02-.38-.11-.47-.32-.22-.56-.41-1.03-.76-1.48,.83,.13,1.08,.14,1.67,.14,1.33,0,2.02-.52,2.02-1.44,0-.59-.49-1.08-1.22-1.08-.68,0-1.31,.11-2.16,.4-.74,.27-1.48,.56-2.2,.88,.72,2.03,1.44,4.09,2.12,6.09,.04,.07,.07,.16,.07,.23,0,.11-.07,.2-.22,.29-.43,.22-.85,.34-1.3,.47-.18,.07-.25-.09-.27-.2-.58-2.03-1.15-3.82-1.98-6.14-.2,.09-.52,.25-.9,.41-.49,.23-.77,.41-1.06,.61-.13,.09-.2,.16-.31,.16s-.22-.09-.34-.23c-.38-.45-.7-1.04-.99-1.55,.47-.07,.85-.18,1.4-.36,.54-.18,1.04-.38,1.57-.61-.29-.86-.43-1.3-.61-1.73s-.36-.81-.68-1.24c.72-.13,1.44-.25,2.09-.25Zm2.97-1.13c.07-.05,.13-.09,.2-.09,.05,0,.11,.04,.18,.09,.58,.36,1.12,.83,1.46,1.26,.07,.07,.11,.14,.11,.22s-.04,.14-.11,.2c-.25,.25-.63,.52-.97,.77-.05,.04-.11,.07-.16,.07s-.09-.04-.16-.09c-.58-.63-1.01-1.08-1.73-1.53,.58-.47,.99-.77,1.19-.9Z"/><path class="d" d="M99.74,7.13c1.01-.58,1.85-.81,2.86-.81,2.63,0,4.47,1.73,4.47,4.32,0,3.01-2.43,4.93-6.28,4.93-2.27,0-3.64-.97-3.64-2.65,0-1.21,1.13-2.2,2.54-2.2,1.69,0,2.93,.9,3.38,2.63,1.26-.58,1.84-1.37,1.84-2.74,0-1.64-1.15-2.72-2.83-2.72-1.49,0-3.15,.67-4.61,1.91-.52,.47-1.03,.99-1.57,1.53-.13,.13-.22,.2-.31,.2-.07,0-.16-.05-.27-.16-.38-.32-.77-.79-1.06-1.17-.11-.14-.05-.27,.09-.41,1.4-1.13,2.65-2.29,4.27-3.98,1.12-1.15,1.96-2.05,2.79-3.08-1.08,.2-2.36,.45-3.48,.68-.23,.05-.47,.11-.76,.22-.09,.04-.27,.09-.36,.09-.18,0-.31-.09-.4-.31-.22-.41-.38-.92-.63-1.94,.54,.07,1.13,.07,1.67,.04,1.1-.11,2.68-.34,4.09-.61,.45-.09,.81-.18,.99-.27,.09-.05,.25-.14,.34-.14,.18,0,.29,.05,.41,.14,.54,.41,.9,.77,1.21,1.15,.14,.16,.2,.29,.2,.43,0,.18-.11,.34-.31,.43-.31,.14-.45,.27-.79,.58-1.31,1.28-2.52,2.54-3.89,3.85l.02,.05Zm.02,5.13c-.52,0-.86,.31-.86,.68,0,.56,.49,.94,1.57,.94,.32,0,.56-.02,.83-.07-.23-.99-.77-1.55-1.53-1.55Z"/><path class="d" d="M130.96,1.11l3.53,9.07,3.69-9.73,3.53,9.73,3.75-9.07h2.22l-6.06,14.43-3.49-9.62-3.64,9.62-5.77-14.44h2.22Z"/><path class="d" d="M159.87,11.39h-5.81l-1.51,3.3h-2.21L157.06,.26l6.48,14.42h-2.24l-1.42-3.3Zm-.83-1.92l-2.01-4.61-2.11,4.61h4.12Z"/><path class="d" d="M169.55,14.69V.19l9.9,10.35V1.11h2.05V15.51l-9.9-10.33V14.69h-2.05Z"/><path class="d" d="M191.48,1.11V14.69h-2.05V1.11h2.05Z"/><path class="d" d="M199.78,14.69V.19l9.9,10.35V1.11h2.05V15.51l-9.9-10.33V14.69h-2.05Z"/><path class="d" d="M223.12,8.82l-4.43-7.71h2.36l3.1,5.42,3.11-5.42h2.36l-4.45,7.71v5.86h-2.05v-5.86Z"/><path class="d" d="M242.03,11.39h-5.81l-1.51,3.3h-2.21L239.21,.26l6.48,14.42h-2.24l-1.42-3.3Zm-.83-1.92l-2.01-4.61-2.11,4.61h4.12Z"/><path class="d" d="M256.3,8.9l4.2,5.78h-2.5l-3.88-5.55h-.37v5.55h-2.05V1.11h2.4c1.79,0,3.09,.34,3.88,1.01,.88,.75,1.32,1.74,1.32,2.97,0,.96-.28,1.79-.83,2.48s-1.28,1.13-2.18,1.33Zm-2.55-1.56h.65c1.94,0,2.91-.74,2.91-2.22,0-1.39-.94-2.08-2.83-2.08h-.73V7.35Z"/><path class="d" d="M269.27,1.11V9.29c0,1.17,.19,2.02,.57,2.56,.57,.78,1.37,1.17,2.4,1.17s1.84-.39,2.41-1.17c.38-.52,.57-1.37,.57-2.56V1.11h2.05V9.85c0,1.43-.45,2.61-1.34,3.53-1,1.03-2.23,1.55-3.69,1.55s-2.69-.52-3.68-1.55c-.89-.93-1.34-2.1-1.34-3.53V1.11h2.05Z"/></g></g></g></svg>