<?xml version="1.0" encoding="utf-8"?>
<!-- Generator: Adobe Illustrator 26.2.1, SVG Export Plug-In . SVG Version: 6.00 Build 0)  -->
<svg version="1.1" id="レイヤー_1" xmlns="http://www.w3.org/2000/svg" xmlns:xlink="http://www.w3.org/1999/xlink" x="0px"
	 y="0px" viewBox="0 0 277.3 15.7" style="enable-background:new 0 0 277.3 15.7;" xml:space="preserve">
<style type="text/css">
	.st0{fill:#231815;}
</style>
<g id="a">
</g>
<g id="b">
	<g id="c">
		<g>
			<path class="st0" d="M5.9,6.6c1.6-1.3,3.3-2.1,5.2-2.1c2.7,0,4.5,1.8,4.5,4.6s-1.7,4.7-4.8,5.8c-0.1,0.1-0.2,0.1-0.3,0.1
				c-0.2,0-0.3-0.1-0.5-0.2c-0.4-0.4-0.8-0.8-1.4-1.2c1.8-0.5,2.7-1,3.6-1.8C13,10.9,13.4,10,13.4,9c0-1.7-0.9-2.8-2.7-2.8
				S7.7,7,5.9,8.5c0,2.3,0.1,4.5,0.1,6.9c0,0.1-0.1,0.2-0.2,0.2c-0.2,0-1,0.1-1.6,0.1C4,15.7,4,15.6,4,15.4c0-1.8,0-3.7,0.1-5.6
				c-0.9,1.3-1.8,2.6-2.4,3.6c-0.1,0.1-0.2,0.2-0.2,0.2c0,0-0.1,0-0.2-0.1c-0.4-0.4-0.8-0.7-1.1-1.1C0,12.4,0,12.3,0,12.2
				s0-0.1,0.1-0.2c1.6-1.9,2.6-3.2,4-5.1c0-0.4,0-0.9,0-1.3C3.6,5.8,2.7,6.1,2,6.3C1.7,6.5,1.5,6.6,1.4,6.6c-0.1,0-0.2-0.1-0.4-0.3
				c-0.2-0.4-0.5-1-0.7-1.6c0.4,0,0.7-0.1,1.2-0.2C2,4.4,2.7,4.3,4.1,3.9c0-0.8,0-1.6,0-2.3c0-0.5,0-1-0.2-1.6
				c1,0.1,1.6,0.2,2.1,0.3c0.4,0.1,0.4,0.3,0.3,0.6C6.3,1.2,6.3,1.4,6.2,1.7c0,0.4-0.1,0.9-0.1,1.6c0.1,0,0.1,0,0.1,0
				c0,0,0.1,0,0.1,0c0.1,0,0.3,0.2,0.5,0.4c0.2,0.3,0.3,0.4,0.3,0.6s0,0.2-0.3,0.5C6.6,5,6.4,5.4,5.9,6L5.9,6.6L5.9,6.6z"/>
			<path class="st0" d="M29,1.6c0.3,0.2,0.4,0.3,0.4,0.4c0,0.1,0,0.2-0.3,0.5c-0.2,0.3-0.3,0.6-0.4,1.3C28.3,6.1,28,8.3,28,9.7
				c0,0.9,0,1.5,0.1,2.1c0.4-0.8,0.7-1.4,1.2-2.7c0.1,0.4,0.4,0.7,0.6,1.1c0,0.1,0.1,0.2,0.1,0.3c0,0.1,0,0.2-0.1,0.3
				c-0.4,0.9-0.8,1.7-1,2.7c0,0.1,0,0.3,0,0.6c0,0.2,0,0.4,0,0.5c0,0.1-0.1,0.2-0.2,0.2c-0.5,0.1-1,0.2-1.5,0.3
				c-0.1,0-0.2-0.1-0.2-0.2c-0.5-1.3-0.8-3.6-0.8-5.4c0-1.6,0.2-3.6,0.6-5.9c0.2-1.3,0.3-1.9,0.3-2.7C27.9,1.1,28.5,1.3,29,1.6z
				 M32.9,10.1c0.1,0,0.2,0.1,0.2,0.3c0.1,1.2,1,1.7,2.9,1.7c1.3,0,2.2-0.1,3.4-0.2c0.2,0,0.2,0,0.2,0.2c0,0.4,0.1,1.1,0.1,1.6
				c0,0.2,0,0.2-0.3,0.3c-1.2,0.1-2.1,0.2-2.9,0.2c-2.7,0-3.9-0.4-4.7-1.5c-0.5-0.6-0.6-1.5-0.6-2.3L32.9,10.1L32.9,10.1z M31.9,3.4
				c0-0.2,0.1-0.3,0.3-0.3c1.1-0.2,3.1-0.3,3.9-0.3c1.1,0,1.9,0,2.7,0.1c0.4,0,0.4,0,0.4,0.2c0,0.5,0,1,0,1.5c0,0.2-0.1,0.2-0.2,0.2
				c-1.1-0.1-2-0.1-2.9-0.1c-1.2,0-2.4,0.1-4.1,0.4C31.8,4.1,31.8,3.7,31.9,3.4L31.9,3.4z"/>
			<path class="st0" d="M53.9,1.6c0.3,0.2,0.4,0.3,0.4,0.4c0,0.1,0,0.2-0.3,0.5c-0.2,0.3-0.3,0.6-0.4,1.3c-0.5,2.2-0.8,4.4-0.8,5.8
				c0,0.9,0,1.5,0.1,2.1c0.4-0.8,0.7-1.4,1.2-2.7c0.1,0.4,0.4,0.7,0.6,1.1c0,0.1,0.1,0.2,0.1,0.3c0,0.1,0,0.2-0.1,0.3
				c-0.4,0.9-0.8,1.7-1,2.7c0,0.1,0,0.3,0,0.6c0,0.2,0,0.4,0,0.5c0,0.1-0.1,0.2-0.2,0.2c-0.5,0.1-1,0.2-1.5,0.3
				c-0.1,0-0.2-0.1-0.2-0.2c-0.5-1.3-0.8-3.6-0.8-5.4c0-1.6,0.2-3.6,0.6-5.9C51.9,2.3,52,1.7,52,0.9C52.8,1.1,53.4,1.3,53.9,1.6z
				 M57.7,10.1c0.1,0,0.2,0.1,0.2,0.3c0.1,1.2,1,1.7,2.9,1.7c1.3,0,2.2-0.1,3.4-0.2c0.2,0,0.2,0,0.2,0.2c0.1,0.4,0.1,1.1,0.1,1.6
				c0,0.2,0,0.2-0.3,0.3c-1.2,0.1-2.1,0.2-2.9,0.2c-2.7,0-3.9-0.4-4.7-1.5c-0.5-0.6-0.6-1.5-0.6-2.3L57.7,10.1L57.7,10.1z M56.7,3.4
				c0-0.2,0.1-0.3,0.2-0.3c1.1-0.2,3.1-0.3,3.9-0.3c1.1,0,1.9,0,2.7,0.1c0.4,0,0.4,0,0.4,0.2c0,0.5,0,1,0,1.5c0,0.2-0.1,0.2-0.2,0.2
				c-1.1-0.1-2-0.1-2.9-0.1c-1.2,0-2.4,0.1-4.1,0.4C56.7,4.1,56.7,3.7,56.7,3.4z"/>
			<path class="st0" d="M76.5,4.5c0.2,0,0.3,0.1,0.3,0.4c0,0.2,0,0.3,0,0.4c0,0.2,0.1,0.5,0.2,0.7c0.1,0.3,0.2,0.6,0.3,1
				c1-0.4,1.9-0.7,2.5-0.9c0.9-0.3,1.7-0.4,2.5-0.4c1.8,0,3.1,1,3.1,2.7c0,1.9-1.4,3-3.7,3c-0.3,0-0.5,0-0.6,0
				c-0.3,0-0.4-0.1-0.5-0.3c-0.2-0.6-0.4-1-0.8-1.5c0.8,0.1,1.1,0.1,1.7,0.1c1.3,0,2-0.5,2-1.4c0-0.6-0.5-1.1-1.2-1.1
				c-0.7,0-1.3,0.1-2.2,0.4c-0.7,0.3-1.5,0.6-2.2,0.9c0.7,2,1.4,4.1,2.1,6.1c0,0.1,0.1,0.2,0.1,0.2c0,0.1-0.1,0.2-0.2,0.3
				c-0.4,0.2-0.8,0.3-1.3,0.5c-0.2,0.1-0.2-0.1-0.3-0.2c-0.6-2-1.2-3.8-2-6.1c-0.2,0.1-0.5,0.2-0.9,0.4c-0.5,0.2-0.8,0.4-1.1,0.6
				c-0.1,0.1-0.2,0.2-0.3,0.2s-0.2-0.1-0.3-0.2c-0.4-0.4-0.7-1-1-1.6c0.5-0.1,0.8-0.2,1.4-0.4c0.5-0.2,1-0.4,1.6-0.6
				c-0.3-0.9-0.4-1.3-0.6-1.7s-0.4-0.8-0.7-1.2C75.1,4.6,75.8,4.5,76.5,4.5L76.5,4.5z M79.5,3.4c0.1,0,0.1-0.1,0.2-0.1
				c0.1,0,0.1,0,0.2,0.1c0.6,0.4,1.1,0.8,1.5,1.3c0.1,0.1,0.1,0.1,0.1,0.2s0,0.1-0.1,0.2c-0.2,0.2-0.6,0.5-1,0.8
				c-0.1,0-0.1,0.1-0.2,0.1s-0.1,0-0.2-0.1c-0.6-0.6-1-1.1-1.7-1.5C78.9,3.8,79.3,3.5,79.5,3.4L79.5,3.4z"/>
			<path class="st0" d="M98.1,7c1-0.6,1.8-0.8,2.9-0.8c2.6,0,4.5,1.7,4.5,4.3c0,3-2.4,4.9-6.3,4.9c-2.3,0-3.6-1-3.6-2.6
				c0-1.2,1.1-2.2,2.5-2.2c1.7,0,2.9,0.9,3.4,2.6c1.3-0.6,1.8-1.4,1.8-2.7c0-1.6-1.2-2.7-2.8-2.7c-1.5,0-3.2,0.7-4.6,1.9
				c-0.5,0.5-1,1-1.6,1.5c-0.1,0.1-0.2,0.2-0.3,0.2c-0.1,0-0.2-0.1-0.3-0.2c-0.4-0.3-0.8-0.8-1.1-1.2c-0.1-0.1-0.1-0.3,0.1-0.4
				c1.4-1.1,2.7-2.3,4.3-4c1.1-1.2,2-2.1,2.8-3.1c-1.1,0.2-2.4,0.5-3.5,0.7c-0.2,0-0.5,0.1-0.8,0.2c-0.1,0-0.3,0.1-0.4,0.1
				c-0.2,0-0.3-0.1-0.4-0.3c-0.2-0.4-0.4-0.9-0.6-1.9c0.5,0.1,1.1,0.1,1.7,0c1.1-0.1,2.7-0.3,4.1-0.6c0.4-0.1,0.8-0.2,1-0.3
				c0.1-0.1,0.2-0.1,0.3-0.1c0.2,0,0.3,0.1,0.4,0.1c0.5,0.4,0.9,0.8,1.2,1.1c0.1,0.2,0.2,0.3,0.2,0.4c0,0.2-0.1,0.3-0.3,0.4
				c-0.3,0.1-0.4,0.3-0.8,0.6C100.6,4.4,99.4,5.6,98.1,7L98.1,7L98.1,7z M98.1,12.1c-0.5,0-0.9,0.3-0.9,0.7c0,0.6,0.5,0.9,1.6,0.9
				c0.3,0,0.6,0,0.8-0.1C99.4,12.7,98.9,12.1,98.1,12.1L98.1,12.1z"/>
			<path class="st0" d="M123,1.1l3.5,9.1l3.7-9.7l3.5,9.7l3.8-9.1h2.2l-6.1,14.4l-3.5-9.6l-3.6,9.6l-5.8-14.4L123,1.1L123,1.1z"/>
			<path class="st0" d="M151.2,11.8h-5.8l-1.5,3.3h-2.2l6.7-14.4l6.5,14.4h-2.2L151.2,11.8L151.2,11.8z M150.4,9.9l-2-4.6l-2.1,4.6
				H150.4z"/>
			<path class="st0" d="M160.7,14.8V0.3l9.9,10.3V1.2h2.1v14.4l-9.9-10.3v9.5H160.7z"/>
			<path class="st0" d="M187.7,1.2v13.6h-2.1V1.2H187.7z"/>
			<path class="st0" d="M200.6,14.7V0.2l9.9,10.3V1.2h2.1v14.4l-9.9-10.3v9.5H200.6z"/>
			<path class="st0" d="M223.1,8.8l-4.4-7.7h2.4l3.1,5.4l3.1-5.4h2.4l-4.4,7.7v5.9h-2.1L223.1,8.8L223.1,8.8z"/>
			<path class="st0" d="M242,11.4h-5.8l-1.5,3.3h-2.2l6.7-14.4l6.5,14.4h-2.2L242,11.4L242,11.4z M241.2,9.5l-2-4.6l-2.1,4.6H241.2z
				"/>
			<path class="st0" d="M256.3,8.9l4.2,5.8H258l-3.9-5.6h-0.4v5.6h-2.1V1.1h2.4c1.8,0,3.1,0.3,3.9,1c0.9,0.8,1.3,1.7,1.3,3
				c0,1-0.3,1.8-0.8,2.5S257.2,8.7,256.3,8.9L256.3,8.9z M253.7,7.3h0.6c1.9,0,2.9-0.7,2.9-2.2c0-1.4-0.9-2.1-2.8-2.1h-0.7
				L253.7,7.3L253.7,7.3z"/>
			<path class="st0" d="M269.3,1.1v8.2c0,1.2,0.2,2,0.6,2.6c0.6,0.8,1.4,1.2,2.4,1.2s1.8-0.4,2.4-1.2c0.4-0.5,0.6-1.4,0.6-2.6V1.1h2
				v8.7c0,1.4-0.5,2.6-1.3,3.5c-1,1-2.2,1.6-3.7,1.6s-2.7-0.5-3.7-1.6c-0.9-0.9-1.3-2.1-1.3-3.5V1.1H269.3z"/>
		</g>
	</g>
</g>
</svg>
